# xmcd
#
# Track frame offsets:
# 150
# 24087
# 42615
# 64678
# 82882
# 100843
# 124791
# 141896
# 163255
# 175759
# 192248
#
# Disc length: 2852 seconds
#
# Revision: 0
# Processed by: cddbd v1.5.2PL0 Copyright (c) Steve Scherf et al.
# Submitted via: Audion 3.0.2 (http://www.panic.com/audion/)
#
DISCID=8d0b220b
DTITLE=sinseikamattechan - 0832he
DYEAR=1900
DGENRE=
TTITLE0=guroi hana
TTITLE1=22sai no ntsuyasumi
TTITLE2=yuugure memoraiza
TTITLE3=kotatsu kara nagameru sekaitizu
TTITLE4=eiga
TTITLE5=boku ha ganbaruyo
TTITLE6=seihuku b shonen
TTITLE7=shinitai kisetsu
TTITLE8=bagutta noumiso
TTITLE9=23sai no natsuyasumi
TTITLE10=26sai no natsuyasumi
EXTD=
EXTT0=
EXTT1=
EXTT2=
EXTT3=
EXTT4=
EXTT5=
EXTT6=
EXTT7=
EXTT8=
EXTT9=
EXTT10=
PLAYORDER=
